<svg xmlns="http://www.w3.org/2000/svg" width="350" height="401" viewBox="0 0 350 401" fill="none"><path d="M239.339 330.288C226.497 319.911 222.873 307.308 222.63 302.197C227.176 299.856 239.847 296.787 255.256 302.72C270.853 308.726 272.864 323.79 271.939 330.655C266.455 334.89 252.34 340.793 239.339 330.288Z" fill="#3B8E46"></path><path d="M222.962 303.197C222.738 303.068 222.662 302.782 222.791 302.559L223.024 302.155C223.153 301.932 223.438 301.855 223.662 301.984L279.427 334.181L278.727 335.393L222.962 303.197Z" fill="#3B8E46"></path><path d="M215.68 260.587C200.449 243.102 198.511 224.787 199.421 217.659C206.279 215.53 224.553 214.376 244.417 226.339C264.525 238.45 263.632 259.775 260.679 269.045C252.061 273.565 231.099 278.286 215.68 260.587Z" fill="#3B8E46"></path><path d="M199.635 219.123C199.358 218.89 199.322 218.477 199.555 218.199L199.976 217.697C200.208 217.42 200.622 217.384 200.899 217.617L270.176 275.747L268.912 277.253L199.635 219.123Z" fill="#3B8E46"></path><path d="M189.017 202.732C168.728 195.769 158.704 181.993 156.136 175.862C160.645 170.984 174.751 161.607 196.198 162.004C217.908 162.406 227.057 179.903 228.978 188.695C224.165 196.301 209.555 209.779 189.017 202.732Z" fill="#3B8E46"></path><path d="M156.985 176.935C156.655 176.877 156.435 176.563 156.493 176.233L156.598 175.636C156.657 175.306 156.971 175.086 157.301 175.144L239.686 189.671L239.37 191.462L156.985 176.935Z" fill="#3B8E46"></path><path d="M317.669 365.691C329.654 351.932 331.179 337.521 330.463 331.912C325.066 330.236 310.687 329.328 295.056 338.742C279.234 348.272 279.936 365.052 282.26 372.346C289.041 375.903 305.536 379.618 317.669 365.691Z" fill="#3B8E46"></path><path d="M330.294 333.063C330.512 332.88 330.54 332.555 330.357 332.337L330.026 331.942C329.843 331.724 329.518 331.695 329.299 331.878L274.787 377.62L275.781 378.805L330.294 333.063Z" fill="#3B8E46"></path><path d="M322.91 281.016C334.882 261.139 333.609 242.753 331.474 235.887C324.345 234.98 306.136 237.018 288.639 252.26C270.928 267.689 275.513 288.549 280.034 297.171C289.312 300.127 310.791 301.137 322.91 281.016Z" fill="#3B8E46"></path><path d="M331.516 237.366C331.749 237.089 331.713 236.675 331.436 236.442L330.933 236.021C330.656 235.788 330.242 235.824 330.009 236.102L271.84 305.425L273.347 306.69L331.516 237.366Z" fill="#3B8E46"></path><path d="M309.72 194.01C322.69 172.477 321.311 152.559 318.998 145.121C311.275 144.138 291.548 146.346 272.594 162.858C253.407 179.573 258.374 202.171 263.272 211.511C273.323 214.714 296.591 215.808 309.72 194.01Z" fill="#3B8E46"></path><path d="M319.044 146.723C319.296 146.423 319.257 145.975 318.956 145.723L318.412 145.266C318.112 145.014 317.663 145.053 317.411 145.354L254.395 220.454L256.027 221.824L319.044 146.723Z" fill="#3B8E46"></path><path d="M247.537 136.41C256.588 121.383 255.625 107.483 254.011 102.291C248.622 101.606 234.855 103.147 221.627 114.67C208.237 126.335 211.703 142.106 215.121 148.624C222.136 150.859 238.374 151.623 247.537 136.41Z" fill="#3B8E46"></path><path d="M254.043 103.41C254.219 103.2 254.192 102.888 253.982 102.712L253.603 102.393C253.393 102.217 253.08 102.244 252.904 102.454L208.926 154.865L210.066 155.821L254.043 103.41Z" fill="#3B8E46"></path><path d="M208.979 98.5676C212.344 81.3503 206.686 68.6176 203.393 64.2917C198.095 65.4906 185.685 71.6471 177.196 86.9996C168.603 102.541 177.254 116.175 182.696 121.131C190.051 120.833 205.572 115.996 208.979 98.5676Z" fill="#3B8E46"></path><path d="M203.806 65.3318C203.9 65.0745 203.767 64.79 203.51 64.6963L203.044 64.5268C202.787 64.4331 202.502 64.5658 202.409 64.8231L179.009 129.114L180.406 129.623L203.806 65.3318Z" fill="#3B8E46"></path><path d="M172.682 59.5243C169.062 36.5069 156.215 23.1858 150.141 19.2823C144.072 23.1858 131.381 36.5069 127.76 59.5243C124.095 82.8243 141.086 95.911 150.129 99.6249C159.174 95.911 176.347 82.8243 172.682 59.5243Z" fill="#3B8E46"></path><path d="M151.129 20.3929C151.129 20.0292 150.834 19.7344 150.47 19.7344H149.812C149.448 19.7344 149.153 20.0292 149.153 20.3929V111.264H151.129V20.3929Z" fill="#3B8E46"></path><path d="M111.396 38.1818C100.122 17.7909 83.4942 9.66679 76.4512 8.07629C72.0835 13.8199 64.7134 30.6785 69.1834 53.5461C73.7084 76.6945 94.1508 83.1807 103.918 83.5778C111.148 76.9943 122.81 58.8231 111.396 38.1818Z" fill="#3B8E46"></path><path d="M77.7593 8.78202C77.6349 8.44028 77.257 8.26408 76.9153 8.38846L76.2965 8.61367C75.9548 8.73806 75.7786 9.11592 75.903 9.45766L106.983 94.8482L108.839 94.1726L77.7593 8.78202Z" fill="#3B8E46"></path><path d="M40.4484 69.5812C17.431 73.2019 4.10985 86.048 0.206415 92.1223C4.10985 98.191 17.431 110.883 40.4484 114.503C63.7484 118.169 76.8351 101.177 80.549 92.1346C76.8351 83.0897 63.7484 65.916 40.4484 69.5812Z" fill="#3B8E46"></path><path d="M1.31697 91.1345C0.953295 91.1345 0.658484 91.4293 0.658484 91.793V92.4515C0.658484 92.8151 0.953297 93.1099 1.31697 93.1099H92.1877V91.1345H1.31697Z" fill="#3B8E46"></path><path d="M161.743 168.181C144.663 171.52 132.031 165.907 127.74 162.641C128.929 157.384 135.037 145.073 150.267 136.651C165.685 128.127 179.211 136.709 184.128 142.107C183.832 149.405 179.033 164.802 161.743 168.181Z" fill="#3B8E46"></path><path d="M128.772 163.05C128.516 163.143 128.234 163.012 128.141 162.756L127.973 162.294C127.88 162.039 128.012 161.757 128.267 161.664L192.047 138.449L192.552 139.836L128.772 163.05Z" fill="#3B8E46"></path><path d="M114.341 138.912C99.4321 147.891 85.6425 146.937 80.4927 145.335C79.8124 139.989 81.341 126.331 92.7727 113.208C104.345 99.9246 119.99 103.363 126.457 106.754C128.675 113.713 129.432 129.822 114.341 138.912Z" fill="#3B8E46"></path><path d="M81.6023 145.367C81.3943 145.542 81.084 145.515 80.9094 145.306L80.5933 144.93C80.4187 144.722 80.4458 144.411 80.6539 144.237L132.648 100.608L133.597 101.739L81.6023 145.367Z" fill="#3B8E46"></path><path d="M273.687 400.076C282.021 344.076 280.487 215.576 207.687 149.576C181.687 126.409 117.787 82.8758 70.1875 94.0758" stroke="#3D9448" stroke-width="5"></path></svg>