<svg xmlns="http://www.w3.org/2000/svg" width="191" height="188" viewBox="0 0 191 188" fill="none"><path d="M126.192 132.386C148.754 136.796 165.438 129.381 171.107 125.067C169.536 118.123 161.469 101.862 141.351 90.7382C120.986 79.478 103.12 90.8146 96.6255 97.9449C97.0166 107.584 103.354 127.921 126.192 132.386Z" fill="#3D9448"></path><path d="M169.744 125.608C170.081 125.731 170.454 125.557 170.577 125.22L170.799 124.609C170.922 124.272 170.748 123.899 170.411 123.776L86.1644 93.1133L85.4978 94.9448L169.744 125.608Z" fill="#3D9448"></path><path d="M94.3048 44.7733C108.753 26.8928 126.3 21.848 133.416 21.5093C136.675 27.8381 140.948 45.4808 132.687 66.9334C124.325 88.6494 103.352 91.4491 93.7933 90.1616C87.8972 82.5265 79.6794 62.8732 94.3048 44.7733Z" fill="#3D9448"></path><path d="M132.024 21.9709C132.203 21.6602 132.601 21.5537 132.911 21.7331L133.474 22.0579C133.785 22.2373 133.891 22.6346 133.712 22.9454L88.8853 100.587L87.1974 99.6126L132.024 21.9709Z" fill="#3D9448"></path><path d="M126.147 117.179C130.557 139.741 123.142 156.425 118.828 162.094C111.884 160.523 95.6229 152.455 84.4993 132.338C73.239 111.973 84.5757 94.107 91.706 87.6125C101.345 88.0036 121.682 94.3413 126.147 117.179Z" fill="#408349"></path><path d="M119.369 160.731C119.492 161.068 119.318 161.441 118.981 161.564L118.37 161.786C118.033 161.909 117.66 161.735 117.537 161.398L86.8744 77.1514L88.7058 76.4848L119.369 160.731Z" fill="#408349"></path><path d="M62.0626 71.2716C57.6524 48.7104 65.067 32.0257 69.3814 26.3571C76.3248 27.9282 92.5863 35.9956 103.71 56.1132C114.97 76.4779 103.634 94.344 96.5033 100.839C86.8645 100.447 66.5269 94.1098 62.0626 71.2716Z" fill="#408349"></path><path d="M68.8403 27.72C68.7176 27.3829 68.8914 27.0101 69.2286 26.8874L69.8391 26.6652C70.1762 26.5425 70.549 26.7163 70.6717 27.0534L101.335 111.3L99.5034 111.966L68.8403 27.72Z" fill="#408349"></path><path d="M114.786 59.8721C137.347 55.462 154.032 62.8766 159.701 67.1909C158.13 74.1343 150.062 90.3958 129.945 101.519C109.58 112.78 91.7138 101.443 85.2193 94.3128C85.6104 84.674 91.948 64.3364 114.786 59.8721Z" fill="#3B8E46"></path><path d="M158.338 66.6498C158.675 66.5271 159.048 66.7009 159.17 67.0381L159.393 67.6486C159.515 67.9857 159.342 68.3585 159.004 68.4813L74.7581 99.1444L74.0916 97.3129L158.338 66.6498Z" fill="#3B8E46"></path><path d="M54.2678 83.8112C34.1501 94.9348 26.1349 111.339 24.5657 118.288C30.2324 122.597 46.865 129.869 69.4262 125.459C92.2644 120.994 98.6636 100.826 99.0554 91.189C92.5601 84.0567 74.6325 72.5509 54.2678 83.8112Z" fill="#3B8E46"></path><path d="M25.262 116.998C24.9248 117.12 24.751 117.493 24.8737 117.83L25.0959 118.441C25.2186 118.778 25.5914 118.952 25.9286 118.829L110.175 88.1659L109.508 86.3345L25.262 116.998Z" fill="#3B8E46"></path><path d="M99.3477 142.156C84.8997 160.037 67.3524 165.081 60.2369 165.42C56.9772 159.091 52.7045 141.449 60.9653 119.996C69.3276 98.2801 90.3009 95.4804 99.8593 96.7679C105.755 104.403 113.973 124.056 99.3477 142.156Z" fill="#3D9448"></path><path d="M61.6287 164.959C61.4493 165.269 61.052 165.376 60.7412 165.196L60.1786 164.872C59.8679 164.692 59.7614 164.295 59.9408 163.984L104.767 86.3424L106.455 87.3169L61.6287 164.959Z" fill="#3D9448"></path><path d="M65.7707 55.159C43.2095 50.7488 26.5248 58.1634 20.8562 62.4777C22.4273 69.4212 30.4946 85.6827 50.6123 96.8063C70.977 108.067 88.8431 96.7299 95.3376 89.5997C94.9465 79.9609 88.6089 59.6233 65.7707 55.159Z" fill="#3D9448"></path><path d="M22.2191 61.9367C21.882 61.814 21.5092 61.9878 21.3864 62.325L21.1643 62.9354C21.0415 63.2726 21.2154 63.6454 21.5525 63.7681L105.799 94.4312L106.465 92.5998L22.2191 61.9367Z" fill="#3D9448"></path><circle cx="92.0163" cy="93.4501" r="18.8711" transform="rotate(70 92.0163 93.4501)" fill="#D44056"></circle></svg>